Coordinates
version=1
nRows=14
nColumns=46
inDegrees=yes

Units are S.I. units (second, meters, Newtons, ...)
Angles are in degrees.

endheader
time	pelvis_tilt	pelvis_list	pelvis_rotation	pelvis_tx	pelvis_ty	pelvis_tz	bb_angle	bb_tx	bb_ty	bb_tz	hip_flexion_r	hip_adduction_r	hip_rotation_r	knee_angle_r	knee_angle_r_beta	ankle_angle_r	subtalar_angle_r	mtp_angle_r	crank_angle_r	hip_flexion_l	hip_adduction_l	hip_rotation_l	knee_angle_l	knee_angle_l_beta	ankle_angle_l	subtalar_angle_l	mtp_angle_l	crank_angle_l	lumbar_extension	lumbar_bending	lumbar_rotation	arm_flex_r	arm_add_r	arm_rot_r	elbow_flex_r	pro_sup_r	wrist_flex_r	wrist_dev_r	arm_flex_l	arm_add_l	arm_rot_l	elbow_flex_l	pro_sup_l	wrist_flex_l	wrist_dev_l
      5.00000000	    -20.32570396	      4.58783222	      3.69867807	      0.33612796	      1.10963997	     -0.30863280	      0.00000000	      0.50000000	      0.00000000	      0.25000000	     43.72260827	    -12.83281777	      0.81592396	     59.16601322	      1.03264174	    -30.51071147	     -2.03284668	      0.00000000	      0.00000000	     72.22519888	     -4.67709893	     -4.21754758	     82.29774411	      1.43636660	      9.03968358	     -2.99174805	      0.00000000	      0.00000000	    -68.09561000	     -6.87896659	     -7.25777215	     73.98143596	    -18.49537866	     31.14779013	     55.04438074	     44.69623017	      0.00000000	      0.00000000	     72.28821190	    -16.91699834	     25.87936608	     78.04113760	     45.47982416	      0.00000000	      0.00000000
      5.00500000	    -20.03103211	      4.30342565	      3.48683137	      0.33570489	      1.11016402	     -0.30823772	      0.00000000	      0.50000000	      0.00000000	      0.25000000	     44.61014579	    -12.26886157	      1.70210437	     61.82401243	      1.07903257	    -29.66298530	     -1.67764658	      0.00000000	      0.00000000	     70.77444758	     -5.20407128	     -4.77245986	     79.76498632	      1.39216164	      7.92072024	     -3.11019532	      0.00000000	      0.00000000	    -68.21618726	     -6.84306670	     -7.52824032	     75.58418167	    -18.03525802	     33.99069396	     52.10182535	     44.57809759	      0.00000000	      0.00000000	     71.44463536	    -16.71273462	     23.80807018	     78.63031401	     45.37930748	      0.00000000	      0.00000000
      5.01000000	    -19.72739728	      3.53404555	      3.44304697	      0.33529076	      1.11049249	     -0.30816374	      0.00000000	      0.50000000	      0.00000000	      0.25000000	     45.31789172	    -11.42281868	      1.97172848	     64.17345389	      1.12003806	    -29.40428168	     -1.57362735	      0.00000000	      0.00000000	     69.48120613	     -5.74176084	     -4.66374022	     77.34848309	      1.34998570	      6.82660437	     -2.73214849	      0.00000000	      0.00000000	    -68.29178550	     -6.44938192	     -6.97591326	     75.86913061	    -17.96158809	     34.11225933	     51.93847699	     44.56601086	      0.00000000	      0.00000000	     71.22795812	    -16.74912786	     23.72477322	     78.70133875	     45.38535395	      0.00000000	      0.00000000
      5.01500000	    -19.53130342	      3.04519056	      3.28383475	      0.33490440	      1.11049829	     -0.30802921	      0.00000000	      0.50000000	      0.00000000	      0.25000000	     46.26154595	    -10.76931510	      2.52451819	     66.61880603	      1.16271751	    -28.77257918	     -0.88783220	      0.00000000	      0.00000000	     68.19616715	     -6.21148218	     -4.82726938	     74.88715289	      1.30702739	      5.53458568	     -2.59932589	      0.00000000	      0.00000000	    -68.24383209	     -6.32864595	     -6.89082023	     76.42896197	    -17.59836740	     35.23004567	     50.66274982	     44.49291236	      0.00000000	      0.00000000	     70.87144955	    -16.80311563	     22.96288305	     78.96021553	     45.35750696	      0.00000000	      0.00000000
      5.02000000	    -19.28074889	      2.27109052	      3.21194480	      0.33452513	      1.11027158	     -0.30814862	      0.00000000	      0.50000000	      0.00000000	      0.25000000	     47.08174875	     -9.96638120	      2.61522861	     68.97391834	      1.20382197	    -28.32852771	     -0.80550697	      0.00000000	      0.00000000	     66.98788830	     -6.79371545	     -4.71253784	     72.58527869	      1.26685210	      4.28378870	     -2.00352856	      0.00000000	      0.00000000	    -68.14086415	     -5.71281237	     -7.06227463	     78.05255097	    -16.26506530	     38.24223049	     47.36479491	     44.32944249	      0.00000000	      0.00000000	     69.88401831	    -17.73106889	     21.46702903	     80.04024768	     45.41041262	      0.00000000	      0.00000000
      5.02500000	    -19.09374086	      1.53889879	      3.07296364	      0.33407197	      1.10959308	     -0.30812546	      0.00000000	      0.50000000	      0.00000000	      0.25000000	     48.07333871	     -9.18587983	      2.69224920	     71.43394625	      1.24675756	    -27.78175811	     -0.83149892	      0.00000000	      0.00000000	     65.84608670	     -7.38751715	     -4.56199680	     70.34426254	      1.22773899	      2.90419715	     -1.41302964	      0.00000000	      0.00000000	    -68.02860708	     -5.38428248	     -6.55668081	     78.35365136	    -16.13448556	     38.32910887	     47.20484802	     44.31406819	      0.00000000	      0.00000000	     69.62741196	    -17.93400813	     21.37487635	     80.10277591	     45.41607274	      0.00000000	      0.00000000
      5.03000000	    -19.04145016	      0.94864014	      2.89343489	      0.33346996	      1.10829380	     -0.30831864	      0.00000000	      0.50000000	      0.00000000	      0.25000000	     49.32100128	     -8.54622617	      2.88413309	     74.00315925	      1.29159879	    -26.98384633	     -0.56570060	      0.00000000	      0.00000000	     64.80200314	     -7.88270054	     -4.56699200	     68.14655415	      1.18938174	      1.51537242	     -1.10733993	      0.00000000	      0.00000000	    -67.70268541	     -4.95615185	     -6.82282193	     79.53811831	    -14.60334450	     40.45833827	     44.26750307	     44.11710177	      0.00000000	      0.00000000	     68.58273619	    -19.10857728	     20.33673167	     81.38486008	     45.54873784	      0.00000000	      0.00000000
      5.03500000	    -18.78192042	      0.20644587	      2.76079668	      0.33308509	      1.10708191	     -0.30843857	      0.00000000	      0.50000000	      0.00000000	      0.25000000	     50.33468024	     -7.87573853	      2.72985031	     76.56542882	      1.33631883	    -26.35749692	     -0.62796697	      0.00000000	      0.00000000	     63.57653323	     -8.43508138	     -4.33916926	     66.04530009	      1.15270794	      0.12346857	     -0.55144626	      0.00000000	      0.00000000	    -67.58995792	     -4.56715338	     -6.23306174	     79.56375525	    -14.42939339	     40.56053924	     44.22368248	     44.12435688	      0.00000000	      0.00000000	     68.26583711	    -19.32880541	     20.27406061	     81.35997340	     45.54315088	      0.00000000	      0.00000000
      5.04000000	    -18.69205874	     -0.21924519	      2.48576687	      0.33282077	      1.10538441	     -0.30848279	      0.00000000	      0.50000000	      0.00000000	      0.25000000	     51.63366707	     -7.38497697	      2.92852425	     79.28417945	      1.38376998	    -25.03826840	     -0.24318205	      0.00000000	      0.00000000	     62.32760882	     -8.83657752	     -4.45282207	     63.86316733	      1.11462254	     -1.27927626	     -0.62931597	      0.00000000	      0.00000000	    -67.27519450	     -4.25694565	     -6.65860790	     80.52959617	    -12.55172947	     42.37608840	     41.14115892	     43.85735266	      0.00000000	      0.00000000	     67.11357777	    -20.76252617	     19.38489410	     82.61976034	     45.68452547	      0.00000000	      0.00000000
      5.04500000	    -18.56647866	     -0.69310798	      2.30086764	      0.33272125	      1.10352118	     -0.30865478	      0.00000000	      0.50000000	      0.00000000	      0.25000000	     52.91516177	     -7.02051737	      2.82287854	     81.99935126	      1.43115866	    -23.89512299	     -0.25883019	      0.00000000	      0.00000000	     61.01639388	     -9.15876579	     -4.42616198	     61.71078462	      1.07705638	     -2.52491193	     -0.57558057	      0.00000000	      0.00000000	    -67.02731979	     -4.01150240	     -6.30943382	     80.54443026	    -12.25349726	     42.61698253	     40.94247075	     43.86069431	      0.00000000	      0.00000000	     66.55040100	    -21.07285603	     19.25549951	     82.61526818	     45.67857494	      0.00000000	      0.00000000
      5.05000000	    -18.31022243	     -1.34000871	      2.00209883	      0.33258438	      1.10165451	     -0.30892407	      0.00000000	      0.50000000	      0.00000000	      0.25000000	     54.07305395	     -6.43387704	      2.67889705	     84.60040216	      1.47655557	    -23.06134347	     -0.37905621	      0.00000000	      0.00000000	     59.56508519	     -9.65248431	     -4.21957865	     59.62925289	      1.04072679	     -3.61609529	     -0.31388350	      0.00000000	      0.00000000	    -66.84022663	     -3.61826656	     -5.58987659	     80.69530700	    -11.98382915	     42.77052882	     40.82486494	     43.85985802	      0.00000000	      0.00000000	     66.08305100	    -21.32459303	     19.17689536	     82.62555202	     45.67863691	      0.00000000	      0.00000000
      5.05500000	    -18.10791795	     -1.59258029	      1.68592517	      0.33259492	      1.09954578	     -0.30941096	      0.00000000	      0.50000000	      0.00000000	      0.25000000	     55.38769148	     -6.23428880	      2.79809825	     87.38527933	      1.52516084	    -21.51217035	     -0.05242705	      0.00000000	      0.00000000	     57.96838615	     -9.79664188	     -4.34791315	     57.47464516	      1.00312179	     -4.77145492	     -0.86254594	      0.00000000	      0.00000000	    -66.59681344	     -3.24536569	     -6.36759356	     81.88165066	     -9.69719826	     45.45603584	     36.92739998	     43.56728996	      0.00000000	      0.00000000	     64.39939664	    -23.09051473	     17.76141930	     84.43668357	     45.85909888	      0.00000000	      0.00000000
      5.06000000	    -17.86896881	     -2.06209226	      1.32638045	      0.33268921	      1.09736001	     -0.30986204	      0.00000000	      0.50000000	      0.00000000	      0.25000000	     56.65978313	     -5.86138672	      2.67242528	     90.05574971	      1.57176934	    -20.29138479	     -0.14331553	      0.00000000	      0.00000000	     56.33861211	    -10.09054417	     -4.16830422	     55.38573791	      0.96666349	     -5.71153507	     -1.11492938	      0.00000000	      0.00000000	    -66.39710351	     -2.98230087	     -5.80444805	     81.86592538	     -9.45058871	     45.65220093	     36.83193142	     43.58173816	      0.00000000	      0.00000000	     63.77053628	    -23.33986284	     17.69332678	     84.34885576	     45.84551809	      0.00000000	      0.00000000
      5.06500000	    -17.63380944	     -2.68858139	      0.93835939	      0.33276430	      1.09508897	     -0.31041669	      0.00000000	      0.50000000	      0.00000000	      0.25000000	     57.93417176	     -5.34443897	      2.49686548	     92.56035295	      1.61548292	    -19.44940792	     -0.26434086	      0.00000000	      0.00000000	     54.73430073	    -10.53520650	     -3.89208337	     53.38511300	      0.93174599	     -6.36586098	     -1.12730682	      0.00000000	      0.00000000	    -66.18871584	     -2.53320161	     -5.04288050	     81.87353532	     -9.24219762	     45.76740716	     36.80287279	     43.59315563	      0.00000000	      0.00000000	     63.28426816	    -23.58347014	     17.63022199	     84.30942380	     45.83908318	      0.00000000	      0.00000000
